# xmcd
#
# Track frame offsets:
#	150
#	22010
#	41870
#	60952
#	80112
#	100622
#	121095
#	144505
#	166517
#	182555
#
# Disc length: 2680 seconds
#
# Revision: 0
# Processed by: cddbd v1.5.1PL2 Copyright (c) Steve Scherf et al.
# Submitted via: EasyCDDAExtractor 9.0.0.1
#
DISCID=760a760a
DTITLE=LA BAMDA DIFERENTE - COMO COMO COMO
DYEAR=1995
DGENRE=merengue
TTITLE0=LA NEGRA DE CACHE
TTITLE1=POR QUE ME GUSTA ASI
TTITLE2=QUE MAS QUIERES DE MI
TTITLE3=DESPERADA
TTITLE4=AGUACHAPAO
TTITLE5=TE PERTENEZCO
TTITLE6=SENCILLO FUE
TTITLE7=ELIZABETH
TTITLE8=QUE SE SIENTE
TTITLE9=DIOS
EXTD=
EXTT0=
EXTT1=
EXTT2=
EXTT3=
EXTT4=
EXTT5=
EXTT6=
EXTT7=
EXTT8=
EXTT9=
PLAYORDER=
